<svg width="126" height="96" viewBox="0 0 126 96" fill="none" xmlns="http://www.w3.org/2000/svg">
<path d="M3.9558 0.522994C4.56803 1.82713 4.6331 3.32287 4.13674 4.68127C3.64036 6.03968 2.6232 7.1494 1.30901 7.76635M1.30901 7.76635C1.95973 7.46087 2.66379 7.28558 3.38096 7.25041C4.09818 7.21534 4.81448 7.32111 5.48894 7.56165C6.16344 7.8023 6.78289 8.173 7.31197 8.65266C7.84106 9.13232 8.2694 9.71155 8.57254 10.3573M1.30901 7.76635C15.6643 1.0272 41.9826 -5.5209 39.1476 17.863C37.597 30.6529 41.2714 53.6538 69.2707 51.5501C78.1062 50.8862 95.6614 46.9756 95.1981 36.6437C94.8838 29.6328 85.4396 20.2727 81.2141 34.2808C77.1853 47.6374 80.6328 77.4488 125.082 95.0546" stroke="#5BC18F" stroke-linecap="round" stroke-linejoin="round"/>
</svg>
